# xmcd CD database file
#
# Track frame offsets:
#	150
#	10339
#	27882
#	43147
#	57484
#	68750
#	82113
#	94961
#	107493
#	123556
#	140698
#	161834
#	179315
#	194563
#	204703
#	217004
#	229728
#
# Disc length: 3244 seconds
#
# Revision: 0
# Processed by: cddbd v1.5.1PL0 Copyright (c) Steve Scherf et al.
# Submitted via: CDex 1.51
#
DISCID=030caa11
DTITLE=Louis Armstrong - what a wonderful world
DYEAR=2004
DGENRE=Blues
TTITLE0=What a wonderful world
TTITLE1=Cabaret
TTITLE2=Moritat (mack the knife)
TTITLE3=When the saints go marching in
TTITLE4=Hello Dolly
TTITLE5=A Kiss to build a dream on
TTITLE6=St. Louis Blues
TTITLE7=C´est si bon
TTITLE8=I got rhytm
TTITLE9=La vie en rose
TTITLE10=Jeepers creepers
TTITLE11=Sweet Georgia Brown
TTITLE12=Ain´t misbehavin´
TTITLE13=On the sunny side of the street
TTITLE14=Basin Street blues
TTITLE15=I can´t give you anything but love
TTITLE16=Just a gigoló
EXTD=YEAR: 2004
EXTT0=
EXTT1=
EXTT2=
EXTT3=
EXTT4=
EXTT5=
EXTT6=
EXTT7=
EXTT8=
EXTT9=
EXTT10=
EXTT11=
EXTT12=
EXTT13=
EXTT14=
EXTT15=
EXTT16=
PLAYORDER=
